<?xml version="1.0" standalone="no"?>
<!DOCTYPE svg PUBLIC "-//W3C//DTD SVG 20010904//EN"
 "http://www.w3.org/TR/2001/REC-SVG-20010904/DTD/svg10.dtd">
<svg version="1.0" xmlns="http://www.w3.org/2000/svg"
 width="500.000000pt" height="500.000000pt" viewBox="0 0 500.000000 500.000000"
 preserveAspectRatio="xMidYMid meet">

<g transform="translate(0.000000,500.000000) scale(0.100000,-0.100000)"
fill="#000000" stroke="none">
<path d="M2768 4057 c-62 -18 -117 -56 -164 -112 -43 -51 -58 -54 -150 -30
-53 14 -61 13 -93 -3 -25 -12 -40 -29 -50 -54 -33 -91 17 -158 209 -276 143
-89 148 -97 107 -186 -29 -63 -95 -162 -126 -190 -24 -22 -28 -39 -7 -34 35 8
155 195 180 281 5 14 18 17 95 17 49 0 96 3 104 6 11 4 21 -7 35 -38 21 -48
69 -94 108 -104 33 -8 84 2 106 23 25 22 31 13 62 -84 66 -211 63 -319 -17
-554 -31 -90 -61 -193 -67 -228 -22 -127 11 -229 108 -334 54 -57 81 -101 70
-112 -20 -20 -294 -52 -316 -37 -8 5 -22 105 -42 298 -16 159 -34 319 -40 355
-40 269 -168 400 -375 387 -173 -11 -318 -134 -434 -366 -74 -148 -130 -346
-146 -519 -4 -40 -12 -73 -17 -73 -21 0 -66 41 -82 74 -23 48 -20 129 9 248
35 144 58 327 53 428 -5 99 -31 160 -81 191 -36 22 -108 23 -115 0 -3 -10 3
-12 26 -6 50 10 101 -20 125 -74 18 -41 19 -59 14 -201 -4 -98 -13 -188 -26
-245 -11 -49 -27 -124 -37 -166 -26 -118 -5 -198 67 -252 41 -30 94 -36 344
-43 264 -7 364 2 401 37 45 42 26 93 -42 110 -67 17 -69 28 -29 170 46 163 45
236 -6 309 -15 22 -15 30 -4 56 23 54 27 74 16 74 -6 0 -18 -18 -27 -40 l-16
-39 -61 5 c-51 4 -68 2 -95 -15 -44 -28 -59 -67 -35 -93 15 -17 27 -19 71 -16
43 4 59 11 87 38 19 19 36 32 39 29 2 -2 11 -19 21 -38 27 -53 22 -148 -14
-271 -17 -58 -31 -115 -31 -127 0 -24 43 -63 70 -63 10 0 28 -8 40 -18 20 -16
21 -21 11 -41 -7 -12 -24 -27 -39 -32 -31 -13 -441 -16 -547 -5 l-71 8 8 86
c28 321 184 666 354 783 77 53 139 72 229 73 64 0 89 -4 122 -22 99 -52 154
-134 187 -277 8 -38 30 -214 48 -390 27 -264 36 -323 50 -337 28 -28 156 -22
311 13 43 10 47 13 47 41 0 39 -27 82 -84 135 -77 72 -91 110 -90 238 0 101 3
118 38 215 76 210 88 257 88 365 0 107 -18 204 -59 319 -25 68 -25 69 -8 124
31 97 2 329 -55 442 -68 135 -223 206 -362 167z m182 -32 c67 -24 125 -77 160
-148 58 -119 83 -363 45 -442 -22 -43 -75 -85 -110 -85 -33 0 -88 41 -108 80
-39 75 -5 258 73 396 16 29 26 55 21 58 -29 18 -120 -201 -136 -327 l-7 -57
-106 0 c-97 0 -108 2 -131 23 -15 13 -79 56 -143 96 -141 86 -178 126 -178
190 0 32 6 51 22 68 25 27 54 29 122 8 27 -8 58 -15 68 -15 11 0 50 31 86 68
46 47 82 74 112 85 58 20 156 21 210 2z m-489 -1326 c20 -10 20 -11 2 -31 -26
-28 -67 -48 -102 -48 -34 0 -45 12 -36 40 13 40 92 63 136 39z"/>
<path d="M610 1860 c0 -16 7 -20 30 -20 l30 0 0 -145 0 -145 -30 0 c-23 0 -30
-4 -30 -20 0 -18 7 -20 85 -20 78 0 85 2 85 20 0 15 -7 20 -25 20 -24 0 -25 2
-25 70 l0 70 75 0 75 0 0 -69 c0 -68 0 -70 -27 -73 -17 -2 -29 -10 -31 -20 -3
-16 6 -18 88 -18 82 0 91 2 88 18 -2 10 -14 18 -31 20 l-27 3 0 145 0 144 31
0 c24 0 30 4 27 18 -3 15 -15 17 -88 17 -73 0 -85 -2 -88 -17 -3 -14 3 -18 27
-18 l31 0 0 -60 0 -60 -75 0 -75 0 0 60 c0 57 1 60 25 60 18 0 25 5 25 20 0
18 -7 20 -85 20 -78 0 -85 -2 -85 -20z"/>
<path d="M1206 1871 c-4 -5 -33 -79 -65 -163 -50 -128 -63 -154 -83 -158 -12
-3 -24 -14 -26 -23 -3 -15 7 -17 78 -17 72 0 81 2 78 18 -2 10 -14 18 -31 20
-32 4 -31 3 -13 47 l15 35 69 0 70 0 15 -37 c15 -37 15 -38 -9 -41 -16 -2 -24
-10 -24 -23 0 -17 8 -19 81 -19 71 0 80 2 77 18 -2 9 -13 18 -24 20 -18 3 -33
32 -86 165 -58 148 -66 162 -90 165 -14 2 -29 -1 -32 -7z m49 -124 c14 -37 25
-72 25 -77 0 -6 -25 -10 -56 -10 -41 0 -55 3 -52 13 3 6 15 42 28 79 13 37 25
66 27 65 1 -2 14 -33 28 -70z"/>
<path d="M1470 1860 c0 -16 7 -20 30 -20 l30 0 0 -145 0 -145 -30 0 c-23 0
-30 -4 -30 -20 0 -19 7 -20 91 -20 81 0 90 2 87 18 -2 10 -14 18 -31 20 -26 3
-27 6 -27 61 l0 57 73 12 c86 13 117 40 117 101 0 73 -58 100 -222 101 -81 0
-88 -1 -88 -20z m228 -36 c15 -10 22 -25 22 -49 0 -43 -29 -65 -87 -65 l-43 0
0 65 0 65 43 0 c23 0 53 -7 65 -16z"/>
<path d="M1820 1860 c0 -16 7 -20 30 -20 l30 0 0 -145 0 -145 -30 0 c-23 0
-30 -4 -30 -20 0 -19 7 -20 91 -20 81 0 90 2 87 18 -2 10 -14 18 -31 20 -26 3
-27 6 -27 61 l0 57 73 12 c86 13 117 40 117 101 0 73 -58 100 -222 101 -81 0
-88 -1 -88 -20z m228 -36 c15 -10 22 -25 22 -49 0 -43 -29 -65 -87 -65 l-43 0
0 65 0 65 43 0 c23 0 53 -7 65 -16z"/>
<path d="M2170 1861 c0 -14 8 -21 26 -23 22 -2 36 -19 75 -88 42 -74 48 -92
49 -142 0 -55 -1 -58 -25 -58 -18 0 -25 -5 -25 -20 0 -18 7 -20 86 -20 76 0
85 2 82 18 -2 10 -14 18 -31 20 -25 3 -27 6 -27 52 0 41 9 64 56 144 47 80 60
96 81 96 18 0 24 5 21 18 -3 14 -16 18 -76 20 -67 3 -72 1 -72 -18 0 -15 6
-20 26 -20 l25 0 -37 -70 c-21 -38 -41 -70 -44 -70 -3 0 -22 32 -43 70 l-38
70 25 0 c19 0 26 5 26 20 0 18 -7 20 -80 20 -72 0 -80 -2 -80 -19z"/>
<path d="M2720 1805 c0 -73 1 -75 25 -75 24 0 25 3 25 55 l0 55 45 0 45 0 0
-144 0 -145 -27 -3 c-17 -2 -29 -10 -31 -20 -3 -16 6 -18 88 -18 82 0 91 2 88
18 -2 10 -14 18 -31 20 l-27 3 0 145 0 144 45 0 45 0 0 -55 c0 -48 2 -55 20
-55 18 0 20 7 20 75 l0 75 -165 0 -165 0 0 -75z"/>
<path d="M3221 1773 c-23 -60 -52 -134 -64 -165 -18 -47 -26 -58 -44 -58 -16
0 -23 -6 -23 -20 0 -18 7 -20 75 -20 68 0 75 2 75 20 0 15 -7 20 -25 20 -28 0
-29 4 -14 49 11 31 11 31 84 31 69 0 73 -1 79 -24 3 -13 9 -31 12 -39 4 -11
-2 -16 -18 -19 -12 -2 -24 -11 -26 -20 -3 -16 6 -18 77 -18 73 0 81 2 81 19 0
13 -8 21 -22 23 -19 2 -33 29 -86 166 -61 156 -65 162 -92 162 -26 0 -30 -6
-69 -107z m87 -20 c11 -32 23 -66 27 -75 6 -16 1 -18 -49 -18 -31 0 -56 3 -56
7 0 17 45 143 51 143 4 0 16 -26 27 -57z"/>
<path d="M3527 1874 c-17 -17 -5 -34 23 -34 l30 0 0 -144 0 -145 -27 -3 c-17
-2 -29 -10 -31 -20 -3 -16 6 -18 88 -18 82 0 91 2 88 18 -2 10 -14 18 -31 20
l-27 3 0 145 0 144 31 0 c24 0 30 4 27 18 -3 14 -16 17 -84 20 -44 1 -83 0
-87 -4z"/>
<path d="M3740 1860 c0 -16 7 -20 30 -20 l30 0 0 -145 0 -145 -30 0 c-23 0
-30 -4 -30 -20 0 -19 7 -20 150 -20 l150 0 0 75 c0 73 -1 75 -25 75 -24 0 -25
-3 -25 -55 l0 -55 -65 0 -65 0 0 145 0 145 25 0 c18 0 25 5 25 20 0 18 -7 20
-85 20 -78 0 -85 -2 -85 -20z"/>
<path d="M4143 1860 c-58 -35 -69 -89 -28 -138 17 -20 46 -36 97 -52 80 -25
108 -43 108 -72 0 -35 -36 -58 -92 -58 -69 0 -85 10 -66 39 9 16 10 25 2 39
-25 39 -74 21 -74 -27 0 -85 191 -122 262 -51 22 22 28 38 28 70 0 53 -33 85
-109 106 -93 25 -111 35 -117 61 -8 32 20 62 67 69 34 6 105 -14 82 -23 -21
-8 -15 -51 8 -64 18 -9 25 -7 42 10 17 17 19 26 11 48 -20 59 -153 85 -221 43z"/>
<path d="M1550 1255 l0 -75 35 0 c43 0 85 37 85 73 0 38 -43 77 -85 77 l-35 0
0 -75z m84 39 c35 -34 9 -94 -40 -94 -22 0 -24 3 -24 55 0 52 2 55 24 55 14 0
32 -7 40 -16z"/>
<path d="M1787 1318 c-40 -31 -36 -115 8 -132 52 -20 115 18 115 69 0 55 -79
96 -123 63z m87 -24 c20 -20 20 -58 0 -78 -33 -34 -104 -8 -104 37 0 49 70 76
104 41z"/>
<path d="M2015 1305 c-14 -13 -25 -36 -25 -50 0 -35 42 -75 77 -75 35 0 69 22
76 50 5 18 1 20 -36 19 -30 -2 -34 -3 -14 -6 34 -5 35 -30 2 -39 -39 -10 -74
3 -81 30 -9 36 3 61 33 75 23 11 30 9 56 -9 35 -26 52 -16 18 11 -32 26 -77
24 -106 -6z"/>
<path d="M2360 1255 c0 -43 4 -75 10 -75 6 0 10 14 10 30 0 17 4 30 8 30 5 0
18 -13 30 -30 28 -38 50 -40 23 -2 -19 28 -19 28 0 40 42 27 11 82 -47 82
l-34 0 0 -75z m80 31 c0 -23 -16 -36 -46 -36 -9 0 -14 11 -14 30 0 27 3 30 30
30 25 0 30 -4 30 -24z"/>
<path d="M2550 1255 l0 -75 48 2 c43 1 44 2 10 5 -34 4 -38 7 -38 33 0 26 4
29 38 33 l37 4 -37 1 c-33 2 -38 5 -38 27 0 21 5 25 29 25 17 0 33 5 36 10 4
6 -12 10 -39 10 l-46 0 0 -75z"/>
<path d="M2740 1315 c-20 -24 -2 -54 41 -66 26 -8 39 -18 39 -30 0 -26 -36
-34 -65 -15 -27 18 -35 7 -11 -13 20 -17 77 -10 90 12 15 24 -2 48 -45 62 -19
7 -35 19 -37 28 -4 20 35 32 54 16 8 -6 18 -9 21 -5 11 10 -18 26 -48 26 -15
0 -32 -7 -39 -15z"/>
<path d="M2945 1305 c-30 -30 -32 -64 -4 -99 25 -32 77 -36 102 -8 22 25 22
39 0 19 -42 -37 -103 -15 -103 38 0 13 7 31 16 39 20 20 68 21 84 1 7 -9 15
-13 18 -10 3 3 -3 14 -13 25 -25 28 -70 26 -100 -5z"/>
<path d="M3150 1277 c0 -64 20 -97 59 -97 16 0 34 7 42 16 17 20 25 119 10
128 -8 5 -11 -12 -11 -54 0 -54 -3 -62 -22 -69 -42 -16 -58 3 -58 69 0 33 -4
60 -10 60 -5 0 -10 -24 -10 -53z"/>
<path d="M3360 1255 l0 -75 48 2 c43 1 44 2 10 5 -34 4 -38 7 -38 33 0 26 4
29 38 33 l37 4 -37 1 c-33 2 -38 5 -38 27 0 21 5 25 29 25 17 0 33 5 36 10 4
6 -12 10 -39 10 l-46 0 0 -75z"/>
</g>
</svg>
